<svg width="175" height="175" viewBox="0 0 175 175" fill="none" xmlns="http://www.w3.org/2000/svg">
<path d="M175 87.5C175 116.329 161.057 141.9 139.55 157.843C130.546 164.514 120.218 169.5 109.032 172.329C102.143 174.075 94.932 175 87.5 175C80.068 175 72.8537 174.075 65.9644 172.329C54.7788 169.5 44.45 164.514 35.4464 157.839C13.9392 141.896 0 116.325 0 87.5C0 39.175 39.175 0 87.5 0C135.825 0 175 39.175 175 87.5Z" fill="#FFDA45"/>
<path d="M141.639 136.768C141.229 134.014 140.686 131.179 140.014 128.279C139.421 125.732 138.732 123.136 137.95 120.5C135.893 113.579 133.183 106.386 129.897 99.1146C128.458 95.9358 126.908 92.7431 125.254 89.5538C123.797 86.7432 122.261 83.9289 120.643 81.1323C119.029 78.3323 117.365 75.5965 115.654 72.9288C113.722 69.9039 111.732 66.9682 109.697 64.1323C105.047 57.6502 100.172 51.7039 95.2038 46.4607C93.3147 44.4643 91.4109 42.5714 89.5003 40.7893C87.3254 38.7536 85.1396 36.8645 82.9573 35.1322C68.7108 23.8215 55.9574 20.425 47.0395 25.5715C38.1217 30.7213 34.686 43.4642 37.3575 61.4608C37.7645 64.2144 38.3111 67.0503 38.9861 69.9501C39.572 72.4964 40.261 75.0931 41.0468 77.7287C43.1041 84.6501 45.8145 91.8466 49.104 99.1142C50.5399 102.293 52.0896 105.482 53.7432 108.671C55.2003 111.486 56.7397 114.296 58.354 117.096C59.9684 119.896 61.6326 122.632 63.3433 125.3C65.2789 128.328 67.2681 131.264 69.3004 134.1C73.9506 140.582 78.8253 146.525 83.7933 151.767C85.6828 153.764 87.5896 155.66 89.5003 157.442C91.6751 159.478 93.8609 161.364 96.0395 163.096C101.279 167.257 106.315 170.346 111.032 172.328C122.218 169.499 132.547 164.514 141.55 157.842C142.807 152.05 142.853 144.954 141.639 136.768ZM133.618 156.543C132.578 161.036 130.668 164.114 127.936 165.689C125.207 167.268 121.586 167.382 117.175 166.039C112.396 164.579 106.818 161.386 101.039 156.797C99.0966 155.254 97.15 153.575 95.2035 151.771C93.2963 150 91.3891 148.107 89.4965 146.103C86.2464 142.664 83.0321 138.9 79.8965 134.861C77.8037 132.164 75.743 129.347 73.7322 126.421C70.8142 122.182 67.9965 117.718 65.3178 113.075C62.6357 108.432 60.1786 103.761 57.9678 99.1142C56.4393 95.9106 55.0284 92.7178 53.7429 89.5572C51.8107 84.8216 50.1571 80.1537 48.8036 75.6215C48.0178 72.9787 47.3287 70.3858 46.7535 67.8466C46.1604 65.2609 45.6785 62.7323 45.3141 60.2789C44.2286 52.9826 44.2536 46.5541 45.3784 41.6862C46.4178 37.1933 48.3319 34.1147 51.0604 32.5397C52.5353 31.6896 54.2675 31.261 56.2424 31.261C57.9282 31.261 59.7923 31.5717 61.8209 32.1931C66.5996 33.6502 72.178 36.8467 77.9564 41.4326C79.8992 42.9754 81.8492 44.654 83.7923 46.4648C85.7029 48.2326 87.6067 50.1255 89.4958 52.1257C92.7494 55.5648 95.9637 59.3294 99.1031 63.3722C101.196 66.0686 103.257 68.8864 105.267 71.8115C108.182 76.0508 111 80.515 113.678 85.1542C116.36 89.7972 118.817 94.4685 121.028 99.1149C122.556 102.322 123.967 105.515 125.253 108.676C127.185 113.411 128.839 118.076 130.192 122.608C130.978 125.25 131.667 127.843 132.246 130.382C132.835 132.968 133.317 135.497 133.682 137.95C134.768 145.247 134.743 151.675 133.618 156.543Z" fill="#330099"/>
<path d="M148.179 72.7893C145.589 71.768 142.861 70.8215 140.011 69.95C137.511 69.1891 134.918 68.4857 132.243 67.8465C125.221 66.168 117.636 64.918 109.696 64.1322C106.229 63.7856 102.689 63.5324 99.1034 63.3714C95.9391 63.2251 92.732 63.1499 89.5 63.1499C86.268 63.1499 83.0605 63.2248 79.8928 63.3714C76.3035 63.532 72.7642 63.7894 69.2964 64.1322C61.3571 64.918 53.775 66.168 46.7535 67.8465C44.0786 68.4857 41.4857 69.1895 38.9855 69.95C36.1356 70.8178 33.407 71.768 30.8176 72.7893C13.9 79.4676 4.57849 88.8178 4.57849 99.1141C4.57849 109.41 13.9 118.761 30.8179 125.443C33.4074 126.464 36.1322 127.41 38.9821 128.282C41.482 129.043 44.0748 129.746 46.7501 130.382C53.7716 132.064 61.3571 133.311 69.3001 134.1C72.768 134.443 76.3073 134.696 79.8965 134.861C83.0609 135.007 86.268 135.078 89.5 135.078C92.732 135.078 95.9357 135.007 99.1 134.861C102.689 134.696 106.225 134.443 109.696 134.1C117.636 133.314 125.225 132.064 132.246 130.382C134.921 129.743 137.514 129.043 140.014 128.279C142.861 127.411 145.59 126.464 148.179 125.443C165.1 118.761 174.418 109.411 174.418 99.1141C174.418 88.8178 165.1 79.4676 148.179 72.7893ZM161.293 108.607C157.643 112.018 152.086 115.25 145.225 117.96C142.914 118.871 140.485 119.721 137.95 120.5C135.46 121.268 132.871 121.971 130.193 122.607C125.589 123.703 120.721 124.603 115.653 125.3C112.275 125.768 108.807 126.143 105.267 126.418C100.135 126.829 94.8604 127.036 89.4996 127.036C84.1389 127.036 78.8639 126.829 73.7319 126.422C70.1926 126.143 66.7213 125.768 63.3426 125.3C58.2748 124.604 53.4069 123.704 48.8032 122.607C46.1246 121.971 43.5355 121.268 41.0462 120.5C38.5104 119.721 36.0819 118.871 33.771 117.961C26.9105 115.25 21.3532 112.018 17.7032 108.607C14.3317 105.461 12.621 102.268 12.621 99.1144C12.621 95.961 14.3317 92.768 17.7032 89.6217C21.3532 86.2109 26.9101 82.9789 33.771 80.2681C36.0816 79.3576 38.5104 78.5075 41.0462 77.7289C43.5355 76.9609 46.1246 76.2575 48.8032 75.6217C53.4069 74.5252 58.2748 73.6253 63.3426 72.9287C66.7213 72.4608 70.1926 72.0858 73.7319 71.8073C78.8639 71.4002 84.1389 71.1931 89.4996 71.1931C94.8604 71.1931 100.135 71.4002 105.267 71.811C108.807 72.0862 112.275 72.4611 115.653 72.9291C120.721 73.6256 125.589 74.5256 130.193 75.6221C132.871 76.2578 135.46 76.9612 137.95 77.7292C140.485 78.5079 142.914 79.3579 145.225 80.2685C152.085 82.9792 157.643 86.2113 161.293 89.6221C164.664 92.7687 166.375 95.9614 166.375 99.1148C166.375 102.268 164.664 105.461 161.293 108.607Z" fill="#330099"/>
<path d="M131.957 25.5715C123.039 20.425 110.286 23.8215 96.0393 35.1322C93.8607 36.8645 91.6749 38.7536 89.5 40.7893C87.5894 42.5714 85.6821 44.4677 83.793 46.4642C78.825 51.707 73.9503 57.6498 69.2967 64.132C67.2648 66.9675 65.2752 69.9036 63.3433 72.9285C61.6326 75.5962 59.9684 78.3319 58.3541 81.1319C56.7398 83.9319 55.2007 86.7425 53.7433 89.5569C52.0897 92.7462 50.5396 95.9389 49.1041 99.1139C45.8146 106.385 43.1042 113.578 41.0469 120.499C40.2611 123.139 39.572 125.735 38.9824 128.281C38.3111 131.182 37.7646 134.014 37.3575 136.767C36.1431 144.95 36.1896 152.046 37.4467 157.839C46.4504 164.514 56.7788 169.499 67.9648 172.328C72.6826 170.346 77.7183 167.257 82.9577 163.096C85.1397 161.364 87.3255 159.475 89.5007 157.442C91.4113 155.66 93.3151 153.767 95.2043 151.771C100.169 146.528 105.047 140.581 109.697 134.099C111.729 131.263 113.719 128.328 115.654 125.299C117.365 122.632 119.029 119.896 120.644 117.096C122.261 114.299 123.797 111.489 125.254 108.674C126.908 105.485 128.458 102.292 129.897 99.1135C133.183 91.8456 135.894 84.6494 137.951 77.728C138.733 75.0924 139.422 72.4958 140.011 69.9494C140.687 67.0492 141.229 64.2137 141.64 61.4602C144.311 43.4642 140.875 30.7213 131.957 25.5715ZM130.193 75.6215C128.839 80.1537 127.186 84.8179 125.254 89.5535C123.968 92.7141 122.557 95.9071 121.029 99.1142C118.818 103.761 116.361 108.432 113.679 113.075C111 117.714 108.182 122.178 105.268 126.418C103.254 129.346 101.193 132.164 99.1004 134.86C95.9648 138.9 92.7505 142.664 89.4969 146.103C87.6078 148.103 85.704 149.996 83.7934 151.767C81.8506 153.574 79.9006 155.253 77.9575 156.796C72.1791 161.385 66.6003 164.578 61.822 166.039C57.4114 167.382 53.7898 167.267 51.0612 165.689C48.3326 164.114 46.4182 161.035 45.3792 156.542C44.2543 151.674 44.229 145.246 45.3149 137.95C45.6793 135.496 46.1612 132.967 46.7505 130.382C47.3291 127.843 48.0182 125.25 48.804 122.607C50.1575 118.075 51.8111 113.407 53.7433 108.671C55.0291 105.511 56.4397 102.318 57.9682 99.1142C60.179 94.4678 62.6361 89.7965 65.3182 85.1535C67.9969 80.5106 70.8147 76.0463 73.7326 71.807C75.7434 68.8819 77.8003 66.0642 79.8931 63.3715C83.0325 59.3287 86.2468 55.5645 89.4966 52.125C91.3895 50.1214 93.2967 48.2285 95.2036 46.4607C97.1501 44.6537 99.0963 42.9751 101.039 41.4322C106.818 36.8467 112.397 33.6502 117.175 32.1928C119.204 31.5714 121.068 31.2607 122.753 31.2607C124.728 31.2607 126.464 31.6893 127.935 32.5394C130.667 34.1144 132.578 37.1929 133.617 41.6858C134.742 46.5537 134.768 52.9822 133.682 60.2786C133.317 62.732 132.835 65.2606 132.242 67.8463C131.668 70.3855 130.978 72.9784 130.193 75.6215Z" fill="#330099"/>
<path d="M89.5 115.075C98.3147 115.075 105.461 107.929 105.461 99.1141C105.461 90.2994 98.3147 83.1536 89.5 83.1536C80.6852 83.1536 73.5394 90.2994 73.5394 99.1141C73.5394 107.929 80.6852 115.075 89.5 115.075Z" fill="#330099"/>
</svg>
